<mxfile host="app.diagrams.net" modified="2021-02-24T02:43:34.089Z" agent="5.0 (Windows NT 10.0; Win64; x64) AppleWebKit/537.36 (KHTML, like Gecko) Chrome/88.0.4324.150 Safari/537.36 OPR/74.0.3911.107" etag="DhQJfDJkXP3zsCXoZqJD" version="14.4.2" type="github">
  <diagram id="prtHgNgQTEPvFCAcTncT" name="Page-1">
    <mxGraphModel dx="662" dy="362" grid="1" gridSize="10" guides="1" tooltips="1" connect="1" arrows="1" fold="1" page="1" pageScale="1" pageWidth="827" pageHeight="1169" math="0" shadow="0">
      <root>
        <mxCell id="0" />
        <mxCell id="1" parent="0" />
        <mxCell id="TGXeeI0mjBTbiCpvU_K9-1" value="" style="whiteSpace=wrap;html=1;aspect=fixed;" vertex="1" parent="1">
          <mxGeometry x="270" y="120" width="220" height="220" as="geometry" />
        </mxCell>
        <mxCell id="TGXeeI0mjBTbiCpvU_K9-19" style="edgeStyle=orthogonalEdgeStyle;rounded=0;orthogonalLoop=1;jettySize=auto;html=1;entryX=0;entryY=0.75;entryDx=0;entryDy=0;fontColor=#000000;" edge="1" parent="1" source="TGXeeI0mjBTbiCpvU_K9-2" target="TGXeeI0mjBTbiCpvU_K9-14">
          <mxGeometry relative="1" as="geometry" />
        </mxCell>
        <mxCell id="TGXeeI0mjBTbiCpvU_K9-20" style="edgeStyle=orthogonalEdgeStyle;rounded=0;orthogonalLoop=1;jettySize=auto;html=1;entryX=0;entryY=0.5;entryDx=0;entryDy=0;fontColor=#000000;" edge="1" parent="1" source="TGXeeI0mjBTbiCpvU_K9-2" target="TGXeeI0mjBTbiCpvU_K9-15">
          <mxGeometry relative="1" as="geometry" />
        </mxCell>
        <mxCell id="TGXeeI0mjBTbiCpvU_K9-21" style="edgeStyle=orthogonalEdgeStyle;rounded=0;orthogonalLoop=1;jettySize=auto;html=1;entryX=0;entryY=0.5;entryDx=0;entryDy=0;fontColor=#000000;" edge="1" parent="1" source="TGXeeI0mjBTbiCpvU_K9-2" target="TGXeeI0mjBTbiCpvU_K9-16">
          <mxGeometry relative="1" as="geometry" />
        </mxCell>
        <mxCell id="TGXeeI0mjBTbiCpvU_K9-22" style="edgeStyle=orthogonalEdgeStyle;rounded=0;orthogonalLoop=1;jettySize=auto;html=1;entryX=0;entryY=0.5;entryDx=0;entryDy=0;fontColor=#000000;" edge="1" parent="1" source="TGXeeI0mjBTbiCpvU_K9-2" target="TGXeeI0mjBTbiCpvU_K9-17">
          <mxGeometry relative="1" as="geometry" />
        </mxCell>
        <mxCell id="TGXeeI0mjBTbiCpvU_K9-29" style="edgeStyle=orthogonalEdgeStyle;rounded=0;orthogonalLoop=1;jettySize=auto;html=1;entryX=0;entryY=0.25;entryDx=0;entryDy=0;fontColor=#000000;" edge="1" parent="1" source="TGXeeI0mjBTbiCpvU_K9-2" target="TGXeeI0mjBTbiCpvU_K9-18">
          <mxGeometry relative="1" as="geometry" />
        </mxCell>
        <object label="&lt;b&gt;&lt;font color=&quot;#000000&quot;&gt;Client 1&lt;/font&gt;&lt;/b&gt;" id="TGXeeI0mjBTbiCpvU_K9-2">
          <mxCell style="shape=umlActor;verticalLabelPosition=bottom;verticalAlign=top;html=1;outlineConnect=0;fillColor=#0050ef;strokeColor=#001DBC;fontColor=#ffffff;" vertex="1" parent="1">
            <mxGeometry x="159" y="120" width="31" height="60" as="geometry" />
          </mxCell>
        </object>
        <mxCell id="TGXeeI0mjBTbiCpvU_K9-6" value="Client to &lt;br&gt;Transfer Money" style="shape=umlActor;verticalLabelPosition=bottom;verticalAlign=top;html=1;outlineConnect=0;fillColor=#0050ef;strokeColor=#001DBC;fontColor=#ffffff;" vertex="1" parent="1">
          <mxGeometry x="540" y="160" width="30" height="60" as="geometry" />
        </mxCell>
        <mxCell id="TGXeeI0mjBTbiCpvU_K9-13" value="&lt;b&gt;&lt;font style=&quot;font-size: 14px&quot;&gt;Bank&lt;/font&gt;&lt;/b&gt;" style="text;html=1;strokeColor=#d79b00;fillColor=#ffcd28;align=center;verticalAlign=middle;whiteSpace=wrap;rounded=0;gradientColor=#ffa500;" vertex="1" parent="1">
          <mxGeometry x="320" y="130" width="120" height="30" as="geometry" />
        </mxCell>
        <mxCell id="TGXeeI0mjBTbiCpvU_K9-14" value="Open Account" style="text;html=1;strokeColor=#666666;fillColor=#f5f5f5;align=center;verticalAlign=middle;whiteSpace=wrap;rounded=0;gradientColor=#b3b3b3;" vertex="1" parent="1">
          <mxGeometry x="334.5" y="180" width="91" height="20" as="geometry" />
        </mxCell>
        <mxCell id="TGXeeI0mjBTbiCpvU_K9-15" value="Wtihdraw" style="text;html=1;strokeColor=#666666;fillColor=#f5f5f5;align=center;verticalAlign=middle;whiteSpace=wrap;rounded=0;gradientColor=#b3b3b3;" vertex="1" parent="1">
          <mxGeometry x="334.5" y="210" width="91" height="20" as="geometry" />
        </mxCell>
        <mxCell id="TGXeeI0mjBTbiCpvU_K9-16" value="Insert" style="text;html=1;strokeColor=#666666;fillColor=#f5f5f5;align=center;verticalAlign=middle;whiteSpace=wrap;rounded=0;gradientColor=#b3b3b3;" vertex="1" parent="1">
          <mxGeometry x="335" y="240" width="85" height="20" as="geometry" />
        </mxCell>
        <mxCell id="TGXeeI0mjBTbiCpvU_K9-25" style="edgeStyle=orthogonalEdgeStyle;rounded=0;orthogonalLoop=1;jettySize=auto;html=1;fontColor=#000000;" edge="1" parent="1" source="TGXeeI0mjBTbiCpvU_K9-17" target="TGXeeI0mjBTbiCpvU_K9-6">
          <mxGeometry relative="1" as="geometry" />
        </mxCell>
        <mxCell id="TGXeeI0mjBTbiCpvU_K9-17" value="Transfer" style="text;html=1;strokeColor=#666666;fillColor=#f5f5f5;align=center;verticalAlign=middle;whiteSpace=wrap;rounded=0;gradientColor=#b3b3b3;" vertex="1" parent="1">
          <mxGeometry x="334.5" y="270" width="91" height="20" as="geometry" />
        </mxCell>
        <mxCell id="TGXeeI0mjBTbiCpvU_K9-18" value="Delete Account" style="text;html=1;strokeColor=#666666;fillColor=#f5f5f5;align=center;verticalAlign=middle;whiteSpace=wrap;rounded=0;gradientColor=#b3b3b3;" vertex="1" parent="1">
          <mxGeometry x="334.5" y="300" width="91" height="20" as="geometry" />
        </mxCell>
        <mxCell id="TGXeeI0mjBTbiCpvU_K9-30" value="&lt;b&gt;Client&amp;nbsp;&amp;nbsp;&lt;br&gt;Transfer Money&lt;/b&gt;" style="text;html=1;align=center;verticalAlign=middle;resizable=0;points=[];autosize=1;fontColor=#000000;" vertex="1" parent="1">
          <mxGeometry x="510" y="125" width="100" height="30" as="geometry" />
        </mxCell>
      </root>
    </mxGraphModel>
  </diagram>
</mxfile>
